<?xml version="1.0" encoding="UTF-8"?>
<svg width="24px" height="24px" viewBox="0 0 24 24" version="1.1" xmlns="http://www.w3.org/2000/svg" xmlns:xlink="http://www.w3.org/1999/xlink">
    <title>9CACD433-3779-4484-84D4-9D8D184DB9E5</title>
    <g id="Grundfos-Icons" stroke="none" stroke-width="1" fill="none" fill-rule="evenodd">
        <g id="01-Element/Icon/Action/Formatting/Compose/24x24" fill="#FFFFFF" fill-rule="nonzero">
            <g id="Action/Formatting/Compose/32x32">
                <path d="M15.45,2.99999997 L13.95,4.49999997 L5.99999998,4.49999997 L5.99999998,21 L18,21 L18,14.55 L19.5,13.05 L19.5,22.5 L4.49999998,22.5 L4.49999998,2.99999997 L15.45,2.99999997 Z M19.3575,2.24999997 L19.785,2.37749997 C21.3656813,2.8868617 22.6013422,4.13090941 23.1,5.71499998 L23.2275,6.14249998 L12.87,16.5 L8.99999999,16.5 L8.99999999,12.63 L19.3575,2.24999997 Z M19.77,3.98249997 L10.5,13.2525 L10.5,15 L12.2475,15 L21.5025,5.74499998 C21.1510733,4.9714668 20.5373866,4.34715348 19.77,3.98249997 Z" id="Combined-Shape"></path>
            </g>
        </g>
    </g>
</svg>