<?xml version="1.0" encoding="UTF-8"?>
<svg width="32px" height="32px" viewBox="0 0 32 32" version="1.1" xmlns="http://www.w3.org/2000/svg" xmlns:xlink="http://www.w3.org/1999/xlink">
    <title>5A553188-9678-4EED-B718-4631BF405B3F</title>
    <g id="Grundfos-Icons" stroke="none" stroke-width="1" fill="none" fill-rule="evenodd">
        <g id="01-Element/Icon/Communication/Technology/Cloud-upload/32x32" fill="#FFFFFF" fill-rule="nonzero">
            <path d="M15.99,12.59 L21.76,18.34 L20.35,19.76 L17,16.42 L16.99,26 L14.99,26 L15,16.41 L11.65,19.76 L10.24,18.35 L15.99,12.59 Z M16,3.99990961 C19.9188165,3.982801 23.4288539,6.42143746 24.78,10.1 C28.53,10.8 31,13.9 31,18 C31,22.418278 27.418278,26.0000951 23,26.0000951 L23,26.0000951 L23,24 C26.3137085,24 29,21.3137085 29,18 C29,14.63 27,12.33 23.86,11.99 L23.86,11.99 L23.17,11.92 L23,11.24 C22.1069374,8.12039604 19.2448423,5.97791343 16,6 C12.1340068,6 9,9.13400675 9,13 L9,13 L9,14 L8,14 C5.23857625,14 3,16.2385763 3,19 C3,21.7614237 5.23857625,24 8,24 L8,24 L9,24 L9,26.0000951 L8,26.0000951 C4.30484651,26.0190883 1.23128116,23.1626857 0.980038757,19.4760339 C0.728796351,15.7893822 3.38642107,12.5424035 7.05,12.06 C7.53110893,7.47883122 11.3936378,4.00039743 16,3.99990961 Z" id="Combined-Shape"></path>
        </g>
    </g>
</svg>