<?xml version="1.0" encoding="UTF-8"?>
<svg width="32px" height="32px" viewBox="0 0 32 32" version="1.1" xmlns="http://www.w3.org/2000/svg" xmlns:xlink="http://www.w3.org/1999/xlink">
    <title>C299A854-B2F2-48E8-A0A8-7FEE0D513A9C</title>
    <g id="Grundfos-Icons" stroke="none" stroke-width="1" fill="none" fill-rule="evenodd">
        <g id="01-Element/Icon/Business/Commerce/Shopping-cart/32x32" fill="#FFFFFF" fill-rule="nonzero">
            <path d="M25,26 C26.1045695,26 27,26.8954305 27,28 C27,29.1045695 26.1045695,30 25,30 C23.8954305,30 23,29.1045695 23,28 C23,26.8954305 23.8954305,26 25,26 Z M10.6837539,26.021607 C11.7740528,25.8446265 12.8013857,26.5850174 12.9783662,27.6753162 C13.1553467,28.7656152 12.4149558,29.7929481 11.3246569,29.9699285 C10.234358,30.146909 9.20702511,29.4065182 9.03004461,28.3162193 C8.85306415,27.2259204 9.59345501,26.1985874 10.6837539,26.021607 Z M2.48999996,1.99999996 C3.41524857,1.95900121 4.32742461,2.23018869 5.07999997,2.76999996 C5.8693178,3.39389121 6.37397798,4.30948896 6.47999997,5.30999997 L6.47999997,5.30999997 L6.81999997,6.99999997 L30.23,6.99999997 L27.94,18 L8.99999995,18 L9.47999998,20.3 C9.67999998,21.29 9.88999998,21.45 10.14,21.64 C10.5502355,21.9031897 11.0334753,22.0292523 11.52,22 L11.52,22 L27,22 L27,24.01 L11.51,24.01 C10.5847514,24.0509988 9.67257534,23.7798113 8.91999998,23.24 C8.13068214,22.6161088 7.62602196,21.700511 7.51999997,20.7 L7.51999997,20.7 L4.51999996,5.69999997 C4.31999996,4.70999996 4.10999996,4.54999996 3.85999996,4.35999996 C3.44976445,4.09681024 2.96652469,3.97074769 2.47999996,3.99999996 L2.47999996,3.99999996 L0.999999953,3.99999996 L0.999999953,1.99999996 Z M27.77,8.99999998 L7.21999997,8.99999998 L8.61999998,16 L26.31,16 L27.77,8.99999998 Z" id="Combined-Shape"></path>
        </g>
    </g>
</svg>